<svg width="381" height="108" viewBox="0 0 381 108" fill="none" xmlns="http://www.w3.org/2000/svg">
<path d="M173.276 54V27.8182H178.811V38.6207H190.048V27.8182H195.571V54H190.048V43.1847H178.811V54H173.276ZM200.033 54V34.3636H205.479V54H200.033ZM202.768 31.8324C201.959 31.8324 201.264 31.5639 200.685 31.027C200.114 30.4815 199.828 29.8295 199.828 29.071C199.828 28.321 200.114 27.6776 200.685 27.1406C201.264 26.5952 201.959 26.3224 202.768 26.3224C203.578 26.3224 204.268 26.5952 204.839 27.1406C205.419 27.6776 205.709 28.321 205.709 29.071C205.709 29.8295 205.419 30.4815 204.839 31.027C204.268 31.5639 203.578 31.8324 202.768 31.8324ZM217.077 54.3196C215.586 54.3196 214.235 53.9361 213.025 53.169C211.823 52.3935 210.868 51.2557 210.161 49.7557C209.462 48.2472 209.113 46.3977 209.113 44.2074C209.113 41.9574 209.475 40.0866 210.199 38.5952C210.924 37.0952 211.887 35.9744 213.088 35.233C214.299 34.483 215.624 34.108 217.064 34.108C218.164 34.108 219.08 34.2955 219.813 34.6705C220.554 35.0369 221.151 35.4972 221.603 36.0511C222.063 36.5966 222.412 37.1335 222.651 37.6619H222.817V27.8182H228.25V54H222.881V50.8551H222.651C222.395 51.4006 222.033 51.9418 221.564 52.4787C221.104 53.0071 220.503 53.446 219.762 53.7955C219.029 54.1449 218.134 54.3196 217.077 54.3196ZM218.803 49.9858C219.681 49.9858 220.422 49.7472 221.027 49.2699C221.641 48.7841 222.11 48.1065 222.434 47.2372C222.766 46.3679 222.932 45.3494 222.932 44.1818C222.932 43.0142 222.77 42 222.446 41.1392C222.123 40.2784 221.654 39.6136 221.04 39.1449C220.426 38.6761 219.681 38.4418 218.803 38.4418C217.908 38.4418 217.154 38.6847 216.54 39.1705C215.926 39.6562 215.462 40.3295 215.147 41.1903C214.831 42.0511 214.674 43.0483 214.674 44.1818C214.674 45.3239 214.831 46.3338 215.147 47.2116C215.471 48.081 215.935 48.7628 216.54 49.2571C217.154 49.7429 217.908 49.9858 218.803 49.9858ZM239.964 54.3196C238.472 54.3196 237.121 53.9361 235.911 53.169C234.71 52.3935 233.755 51.2557 233.048 49.7557C232.349 48.2472 231.999 46.3977 231.999 44.2074C231.999 41.9574 232.362 40.0866 233.086 38.5952C233.81 37.0952 234.773 35.9744 235.975 35.233C237.185 34.483 238.511 34.108 239.951 34.108C241.05 34.108 241.967 34.2955 242.7 34.6705C243.441 35.0369 244.038 35.4972 244.489 36.0511C244.95 36.5966 245.299 37.1335 245.538 37.6619H245.704V27.8182H251.137V54H245.768V50.8551H245.538C245.282 51.4006 244.92 51.9418 244.451 52.4787C243.991 53.0071 243.39 53.446 242.648 53.7955C241.915 54.1449 241.021 54.3196 239.964 54.3196ZM241.69 49.9858C242.567 49.9858 243.309 49.7472 243.914 49.2699C244.528 48.7841 244.996 48.1065 245.32 47.2372C245.653 46.3679 245.819 45.3494 245.819 44.1818C245.819 43.0142 245.657 42 245.333 41.1392C245.009 40.2784 244.54 39.6136 243.927 39.1449C243.313 38.6761 242.567 38.4418 241.69 38.4418C240.795 38.4418 240.04 38.6847 239.427 39.1705C238.813 39.6562 238.349 40.3295 238.033 41.1903C237.718 42.0511 237.56 43.0483 237.56 44.1818C237.56 45.3239 237.718 46.3338 238.033 47.2116C238.357 48.081 238.822 48.7628 239.427 49.2571C240.04 49.7429 240.795 49.9858 241.69 49.9858ZM264.564 54.3835C262.544 54.3835 260.805 53.9744 259.348 53.1562C257.899 52.3295 256.782 51.1619 255.998 49.6534C255.214 48.1364 254.822 46.3423 254.822 44.2713C254.822 42.2514 255.214 40.4787 255.998 38.9531C256.782 37.4276 257.886 36.2386 259.309 35.3864C260.741 34.5341 262.42 34.108 264.346 34.108C265.642 34.108 266.848 34.3168 267.964 34.7344C269.089 35.1435 270.069 35.7614 270.904 36.5881C271.748 37.4148 272.404 38.4545 272.873 39.7074C273.342 40.9517 273.576 42.4091 273.576 44.0795V45.5753H256.995V42.2003H268.45C268.45 41.4162 268.279 40.7216 267.939 40.1165C267.598 39.5114 267.125 39.0384 266.52 38.6974C265.923 38.348 265.228 38.1733 264.436 38.1733C263.609 38.1733 262.876 38.3651 262.237 38.7486C261.606 39.1236 261.112 39.6307 260.754 40.2699C260.396 40.9006 260.213 41.6037 260.204 42.3793V45.5881C260.204 46.5597 260.383 47.3991 260.741 48.1065C261.108 48.8139 261.623 49.3594 262.288 49.7429C262.953 50.1264 263.741 50.3182 264.653 50.3182C265.258 50.3182 265.812 50.233 266.315 50.0625C266.818 49.892 267.248 49.6364 267.606 49.2955C267.964 48.9545 268.237 48.5369 268.424 48.0426L273.461 48.375C273.206 49.5852 272.681 50.642 271.889 51.5455C271.105 52.4403 270.091 53.1392 268.846 53.642C267.61 54.1364 266.183 54.3835 264.564 54.3835ZM282.576 42.6477V54H277.13V34.3636H282.321V37.8281H282.551C282.985 36.6861 283.714 35.7827 284.737 35.1179C285.76 34.4446 287 34.108 288.457 34.108C289.821 34.108 291.01 34.4062 292.024 35.0028C293.038 35.5994 293.826 36.4517 294.389 37.5597C294.951 38.6591 295.233 39.9716 295.233 41.4972V54H289.787V42.4688C289.795 41.267 289.488 40.3295 288.866 39.6562C288.244 38.9744 287.387 38.6335 286.297 38.6335C285.564 38.6335 284.916 38.7912 284.353 39.1065C283.799 39.4219 283.365 39.8821 283.049 40.4872C282.743 41.0838 282.585 41.804 282.576 42.6477ZM308.397 54.3835C306.386 54.3835 304.656 53.9574 303.207 53.1051C301.766 52.2443 300.658 51.0511 299.883 49.5256C299.116 48 298.732 46.2443 298.732 44.2585C298.732 42.2472 299.12 40.483 299.896 38.9659C300.68 37.4403 301.792 36.2514 303.232 35.3991C304.673 34.5384 306.386 34.108 308.371 34.108C310.085 34.108 311.585 34.419 312.871 35.0412C314.158 35.6634 315.177 36.5369 315.927 37.6619C316.677 38.7869 317.09 40.108 317.167 41.625H312.028C311.883 40.6449 311.499 39.8565 310.877 39.2599C310.263 38.6548 309.458 38.3523 308.461 38.3523C307.617 38.3523 306.88 38.5824 306.249 39.0426C305.627 39.4943 305.141 40.1548 304.792 41.0241C304.442 41.8935 304.268 42.946 304.268 44.1818C304.268 45.4347 304.438 46.5 304.779 47.3778C305.129 48.2557 305.619 48.9247 306.249 49.3849C306.88 49.8452 307.617 50.0753 308.461 50.0753C309.083 50.0753 309.641 49.9474 310.136 49.6918C310.638 49.4361 311.052 49.0653 311.376 48.5795C311.708 48.0852 311.925 47.4929 312.028 46.8026H317.167C317.082 48.3026 316.673 49.6236 315.94 50.7656C315.215 51.8991 314.214 52.7855 312.935 53.4247C311.657 54.0639 310.144 54.3835 308.397 54.3835ZM329.603 54.3835C327.583 54.3835 325.844 53.9744 324.387 53.1562C322.938 52.3295 321.821 51.1619 321.037 49.6534C320.253 48.1364 319.861 46.3423 319.861 44.2713C319.861 42.2514 320.253 40.4787 321.037 38.9531C321.821 37.4276 322.925 36.2386 324.348 35.3864C325.78 34.5341 327.459 34.108 329.385 34.108C330.681 34.108 331.887 34.3168 333.003 34.7344C334.128 35.1435 335.108 35.7614 335.944 36.5881C336.787 37.4148 337.444 38.4545 337.912 39.7074C338.381 40.9517 338.615 42.4091 338.615 44.0795V45.5753H322.034V42.2003H333.489C333.489 41.4162 333.319 40.7216 332.978 40.1165C332.637 39.5114 332.164 39.0384 331.559 38.6974C330.962 38.348 330.267 38.1733 329.475 38.1733C328.648 38.1733 327.915 38.3651 327.276 38.7486C326.645 39.1236 326.151 39.6307 325.793 40.2699C325.435 40.9006 325.252 41.6037 325.243 42.3793V45.5881C325.243 46.5597 325.422 47.3991 325.78 48.1065C326.147 48.8139 326.662 49.3594 327.327 49.7429C327.992 50.1264 328.78 50.3182 329.692 50.3182C330.297 50.3182 330.851 50.233 331.354 50.0625C331.857 49.892 332.287 49.6364 332.645 49.2955C333.003 48.9545 333.276 48.5369 333.463 48.0426L338.5 48.375C338.245 49.5852 337.721 50.642 336.928 51.5455C336.144 52.4403 335.13 53.1392 333.885 53.642C332.65 54.1364 331.222 54.3835 329.603 54.3835Z" fill="#007BFF"/>
<path d="M139.489 72.9091V75.6364H131.409V72.9091H139.489ZM133.259 86V71.9631C133.259 71.0142 133.443 70.2273 133.812 69.6023C134.188 68.9773 134.699 68.5085 135.347 68.196C135.994 67.8835 136.73 67.7273 137.554 67.7273C138.111 67.7273 138.619 67.7699 139.08 67.8551C139.545 67.9403 139.892 68.017 140.119 68.0852L139.472 70.8125C139.33 70.767 139.153 70.7244 138.943 70.6847C138.739 70.6449 138.528 70.625 138.312 70.625C137.778 70.625 137.406 70.75 137.196 71C136.986 71.2443 136.881 71.5881 136.881 72.0312V86H133.259ZM147.204 86.2557C145.857 86.2557 144.698 85.983 143.727 85.4375C142.761 84.8864 142.016 84.108 141.494 83.1023C140.971 82.0909 140.71 80.8949 140.71 79.5142C140.71 78.1676 140.971 76.9858 141.494 75.9688C142.016 74.9517 142.752 74.1591 143.701 73.5909C144.656 73.0227 145.775 72.7386 147.059 72.7386C147.923 72.7386 148.727 72.8778 149.471 73.1562C150.221 73.429 150.874 73.8409 151.431 74.392C151.994 74.9432 152.431 75.6364 152.744 76.4716C153.056 77.3011 153.212 78.2727 153.212 79.3864V80.3835H142.158V78.1335H149.795C149.795 77.6108 149.681 77.1477 149.454 76.7443C149.227 76.3409 148.911 76.0256 148.508 75.7983C148.11 75.5653 147.647 75.4489 147.119 75.4489C146.567 75.4489 146.079 75.5767 145.653 75.8324C145.232 76.0824 144.903 76.4205 144.664 76.8466C144.425 77.267 144.303 77.7358 144.298 78.2528V80.392C144.298 81.0398 144.417 81.5994 144.656 82.071C144.9 82.5426 145.244 82.9062 145.687 83.1619C146.13 83.4176 146.656 83.5455 147.263 83.5455C147.667 83.5455 148.036 83.4886 148.371 83.375C148.707 83.2614 148.994 83.0909 149.232 82.8636C149.471 82.6364 149.653 82.358 149.778 82.0284L153.136 82.25C152.965 83.0568 152.616 83.7614 152.087 84.3636C151.565 84.9602 150.888 85.4261 150.059 85.7614C149.235 86.0909 148.283 86.2557 147.204 86.2557ZM161.548 86.2557C160.201 86.2557 159.042 85.983 158.07 85.4375C157.104 84.8864 156.36 84.108 155.837 83.1023C155.315 82.0909 155.053 80.8949 155.053 79.5142C155.053 78.1676 155.315 76.9858 155.837 75.9688C156.36 74.9517 157.096 74.1591 158.045 73.5909C158.999 73.0227 160.119 72.7386 161.403 72.7386C162.266 72.7386 163.07 72.8778 163.815 73.1562C164.565 73.429 165.218 73.8409 165.775 74.392C166.337 74.9432 166.775 75.6364 167.087 76.4716C167.4 77.3011 167.556 78.2727 167.556 79.3864V80.3835H156.502V78.1335H164.138C164.138 77.6108 164.025 77.1477 163.798 76.7443C163.57 76.3409 163.255 76.0256 162.852 75.7983C162.454 75.5653 161.991 75.4489 161.462 75.4489C160.911 75.4489 160.423 75.5767 159.996 75.8324C159.576 76.0824 159.246 76.4205 159.008 76.8466C158.769 77.267 158.647 77.7358 158.641 78.2528V80.392C158.641 81.0398 158.761 81.5994 158.999 82.071C159.244 82.5426 159.587 82.9062 160.031 83.1619C160.474 83.4176 160.999 83.5455 161.607 83.5455C162.011 83.5455 162.38 83.4886 162.715 83.375C163.05 83.2614 163.337 83.0909 163.576 82.8636C163.815 82.6364 163.996 82.358 164.121 82.0284L167.479 82.25C167.309 83.0568 166.96 83.7614 166.431 84.3636C165.908 84.9602 165.232 85.4261 164.403 85.7614C163.579 86.0909 162.627 86.2557 161.548 86.2557ZM173.556 68.5455V86H169.925V68.5455H173.556ZM192.911 76.642L189.587 76.8466C189.531 76.5625 189.408 76.3068 189.221 76.0795C189.033 75.8466 188.786 75.6619 188.479 75.5256C188.178 75.3835 187.817 75.3125 187.397 75.3125C186.835 75.3125 186.36 75.4318 185.974 75.6705C185.587 75.9034 185.394 76.2159 185.394 76.608C185.394 76.9205 185.519 77.1847 185.769 77.4006C186.019 77.6165 186.448 77.7898 187.056 77.9205L189.425 78.3977C190.698 78.6591 191.647 79.0795 192.272 79.6591C192.897 80.2386 193.21 81 193.21 81.9432C193.21 82.8011 192.957 83.554 192.451 84.2017C191.951 84.8494 191.263 85.3551 190.388 85.7188C189.519 86.0767 188.516 86.2557 187.38 86.2557C185.647 86.2557 184.266 85.8949 183.238 85.1733C182.215 84.446 181.616 83.4574 181.44 82.2074L185.011 82.0199C185.119 82.5483 185.38 82.9517 185.795 83.2301C186.21 83.5028 186.741 83.6392 187.388 83.6392C188.025 83.6392 188.536 83.517 188.923 83.2727C189.315 83.0227 189.513 82.7017 189.519 82.3097C189.513 81.9801 189.374 81.7102 189.102 81.5C188.829 81.2841 188.408 81.1193 187.84 81.0057L185.573 80.554C184.295 80.2983 183.343 79.8551 182.718 79.2244C182.099 78.5937 181.789 77.7898 181.789 76.8125C181.789 75.9716 182.016 75.2472 182.471 74.6392C182.931 74.0312 183.576 73.5625 184.406 73.233C185.241 72.9034 186.218 72.7386 187.337 72.7386C188.991 72.7386 190.292 73.0881 191.241 73.7869C192.195 74.4858 192.752 75.4375 192.911 76.642ZM199.229 86.2472C198.393 86.2472 197.649 86.1023 196.996 85.8125C196.342 85.517 195.825 85.0824 195.445 84.5085C195.07 83.929 194.882 83.2074 194.882 82.3438C194.882 81.6165 195.016 81.0057 195.283 80.5114C195.55 80.017 195.913 79.6193 196.374 79.3182C196.834 79.017 197.357 78.7898 197.942 78.6364C198.533 78.483 199.152 78.375 199.8 78.3125C200.561 78.233 201.175 78.1591 201.641 78.0909C202.107 78.017 202.445 77.9091 202.655 77.767C202.865 77.625 202.97 77.4148 202.97 77.1364V77.0852C202.97 76.5455 202.8 76.1278 202.459 75.8324C202.124 75.5369 201.646 75.3892 201.027 75.3892C200.374 75.3892 199.854 75.5341 199.467 75.8239C199.081 76.108 198.825 76.4659 198.7 76.8977L195.342 76.625C195.513 75.8295 195.848 75.142 196.348 74.5625C196.848 73.9773 197.493 73.5284 198.283 73.2159C199.078 72.8977 199.999 72.7386 201.044 72.7386C201.771 72.7386 202.467 72.8239 203.132 72.9943C203.803 73.1648 204.396 73.429 204.913 73.7869C205.436 74.1449 205.848 74.6051 206.149 75.1676C206.45 75.7244 206.601 76.392 206.601 77.1705V86H203.158V84.1847H203.055C202.845 84.5938 202.564 84.9545 202.212 85.267C201.859 85.5739 201.436 85.8153 200.942 85.9915C200.447 86.1619 199.876 86.2472 199.229 86.2472ZM200.268 83.7415C200.803 83.7415 201.274 83.6364 201.683 83.4261C202.092 83.2102 202.413 82.9205 202.646 82.5568C202.879 82.1932 202.996 81.7812 202.996 81.321V79.9318C202.882 80.0057 202.726 80.0739 202.527 80.1364C202.334 80.1932 202.115 80.2472 201.871 80.2983C201.626 80.3437 201.382 80.3864 201.138 80.4261C200.893 80.4602 200.672 80.4915 200.473 80.5199C200.047 80.5824 199.675 80.6818 199.357 80.8182C199.038 80.9545 198.791 81.1392 198.615 81.3722C198.439 81.5994 198.351 81.8835 198.351 82.2244C198.351 82.7188 198.53 83.0966 198.888 83.358C199.251 83.6136 199.712 83.7415 200.268 83.7415ZM216.457 72.9091V75.6364H208.378V72.9091H216.457ZM210.227 86V71.9631C210.227 71.0142 210.412 70.2273 210.781 69.6023C211.156 68.9773 211.668 68.5085 212.315 68.196C212.963 67.8835 213.699 67.7273 214.523 67.7273C215.08 67.7273 215.588 67.7699 216.048 67.8551C216.514 67.9403 216.861 68.017 217.088 68.0852L216.44 70.8125C216.298 70.767 216.122 70.7244 215.912 70.6847C215.707 70.6449 215.497 70.625 215.281 70.625C214.747 70.625 214.375 70.75 214.165 71C213.955 71.2443 213.849 71.5881 213.849 72.0312V86H210.227ZM224.173 86.2557C222.826 86.2557 221.667 85.983 220.695 85.4375C219.729 84.8864 218.985 84.108 218.462 83.1023C217.94 82.0909 217.678 80.8949 217.678 79.5142C217.678 78.1676 217.94 76.9858 218.462 75.9688C218.985 74.9517 219.721 74.1591 220.67 73.5909C221.624 73.0227 222.744 72.7386 224.028 72.7386C224.891 72.7386 225.695 72.8778 226.44 73.1562C227.19 73.429 227.843 73.8409 228.4 74.392C228.962 74.9432 229.4 75.6364 229.712 76.4716C230.025 77.3011 230.181 78.2727 230.181 79.3864V80.3835H219.127V78.1335H226.763C226.763 77.6108 226.65 77.1477 226.423 76.7443C226.195 76.3409 225.88 76.0256 225.477 75.7983C225.079 75.5653 224.616 75.4489 224.087 75.4489C223.536 75.4489 223.048 75.5767 222.621 75.8324C222.201 76.0824 221.871 76.4205 221.633 76.8466C221.394 77.267 221.272 77.7358 221.266 78.2528V80.392C221.266 81.0398 221.386 81.5994 221.624 82.071C221.869 82.5426 222.212 82.9062 222.656 83.1619C223.099 83.4176 223.624 83.5455 224.232 83.5455C224.636 83.5455 225.005 83.4886 225.34 83.375C225.675 83.2614 225.962 83.0909 226.201 82.8636C226.44 82.6364 226.621 82.358 226.746 82.0284L230.104 82.25C229.934 83.0568 229.585 83.7614 229.056 84.3636C228.533 84.9602 227.857 85.4261 227.028 85.7614C226.204 86.0909 225.252 86.2557 224.173 86.2557ZM245.068 72.9091V75.6364H237.185V72.9091H245.068ZM238.974 69.7727H242.605V81.9773C242.605 82.3125 242.656 82.5739 242.759 82.7614C242.861 82.9432 243.003 83.071 243.185 83.1449C243.372 83.2187 243.588 83.2557 243.832 83.2557C244.003 83.2557 244.173 83.2415 244.344 83.2131C244.514 83.179 244.645 83.1534 244.736 83.1364L245.307 85.8381C245.125 85.8949 244.869 85.9602 244.54 86.0341C244.21 86.1136 243.81 86.1619 243.338 86.179C242.463 86.2131 241.696 86.0966 241.037 85.8295C240.384 85.5625 239.875 85.1477 239.511 84.5852C239.148 84.0227 238.969 83.3125 238.974 82.4545V69.7727ZM251.345 78.4318V86H247.714V68.5455H251.243V75.2188H251.396C251.692 74.446 252.169 73.8409 252.828 73.4034C253.487 72.9602 254.314 72.7386 255.308 72.7386C256.217 72.7386 257.01 72.9375 257.686 73.3352C258.368 73.7273 258.896 74.2926 259.271 75.0312C259.652 75.7642 259.839 76.642 259.834 77.6648V86H256.203V78.3125C256.209 77.5057 256.004 76.8778 255.589 76.429C255.18 75.9801 254.607 75.7557 253.868 75.7557C253.374 75.7557 252.936 75.8608 252.555 76.071C252.18 76.2812 251.885 76.5881 251.669 76.9915C251.459 77.3892 251.351 77.8693 251.345 78.4318ZM266.424 86.2472C265.589 86.2472 264.844 86.1023 264.191 85.8125C263.538 85.517 263.021 85.0824 262.64 84.5085C262.265 83.929 262.077 83.2074 262.077 82.3438C262.077 81.6165 262.211 81.0057 262.478 80.5114C262.745 80.017 263.109 79.6193 263.569 79.3182C264.029 79.017 264.552 78.7898 265.137 78.6364C265.728 78.483 266.347 78.375 266.995 78.3125C267.756 78.233 268.37 78.1591 268.836 78.0909C269.302 78.017 269.64 77.9091 269.85 77.767C270.06 77.625 270.165 77.4148 270.165 77.1364V77.0852C270.165 76.5455 269.995 76.1278 269.654 75.8324C269.319 75.5369 268.842 75.3892 268.222 75.3892C267.569 75.3892 267.049 75.5341 266.663 75.8239C266.276 76.108 266.021 76.4659 265.896 76.8977L262.538 76.625C262.708 75.8295 263.043 75.142 263.543 74.5625C264.043 73.9773 264.688 73.5284 265.478 73.2159C266.273 72.8977 267.194 72.7386 268.239 72.7386C268.967 72.7386 269.663 72.8239 270.327 72.9943C270.998 73.1648 271.592 73.429 272.109 73.7869C272.631 74.1449 273.043 74.6051 273.344 75.1676C273.646 75.7244 273.796 76.392 273.796 77.1705V86H270.353V84.1847H270.251C270.04 84.5938 269.759 84.9545 269.407 85.267C269.055 85.5739 268.631 85.8153 268.137 85.9915C267.643 86.1619 267.072 86.2472 266.424 86.2472ZM267.464 83.7415C267.998 83.7415 268.469 83.6364 268.879 83.4261C269.288 83.2102 269.609 82.9205 269.842 82.5568C270.075 82.1932 270.191 81.7812 270.191 81.321V79.9318C270.077 80.0057 269.921 80.0739 269.722 80.1364C269.529 80.1932 269.31 80.2472 269.066 80.2983C268.822 80.3437 268.577 80.3864 268.333 80.4261C268.089 80.4602 267.867 80.4915 267.668 80.5199C267.242 80.5824 266.87 80.6818 266.552 80.8182C266.234 80.9545 265.987 81.1392 265.81 81.3722C265.634 81.5994 265.546 81.8835 265.546 82.2244C265.546 82.7188 265.725 83.0966 266.083 83.358C266.447 83.6136 266.907 83.7415 267.464 83.7415ZM280.244 78.4318V86H276.613V72.9091H280.073V75.2188H280.227C280.516 74.4574 281.002 73.8551 281.684 73.4119C282.366 72.9631 283.192 72.7386 284.164 72.7386C285.073 72.7386 285.866 72.9375 286.542 73.3352C287.218 73.733 287.744 74.3011 288.119 75.0398C288.494 75.7727 288.681 76.6477 288.681 77.6648V86H285.05V78.3125C285.056 77.5114 284.852 76.8864 284.437 76.4375C284.022 75.983 283.451 75.7557 282.724 75.7557C282.235 75.7557 281.803 75.8608 281.428 76.071C281.059 76.2812 280.769 76.5881 280.559 76.9915C280.354 77.3892 280.249 77.8693 280.244 78.4318ZM294.832 82.233L294.841 77.8778H295.369L299.562 72.9091H303.73L298.097 79.4886H297.236L294.832 82.233ZM291.543 86V68.5455H295.173V86H291.543ZM299.724 86L295.872 80.2983L298.293 77.733L303.977 86H299.724ZM316.403 76.642L313.08 76.8466C313.023 76.5625 312.901 76.3068 312.713 76.0795C312.526 75.8466 312.278 75.6619 311.972 75.5256C311.67 75.3835 311.31 75.3125 310.889 75.3125C310.327 75.3125 309.852 75.4318 309.466 75.6705C309.08 75.9034 308.886 76.2159 308.886 76.608C308.886 76.9205 309.011 77.1847 309.261 77.4006C309.511 77.6165 309.94 77.7898 310.548 77.9205L312.918 78.3977C314.19 78.6591 315.139 79.0795 315.764 79.6591C316.389 80.2386 316.702 81 316.702 81.9432C316.702 82.8011 316.449 83.554 315.943 84.2017C315.443 84.8494 314.756 85.3551 313.881 85.7188C313.011 86.0767 312.009 86.2557 310.872 86.2557C309.139 86.2557 307.759 85.8949 306.73 85.1733C305.707 84.446 305.108 83.4574 304.932 82.2074L308.503 82.0199C308.611 82.5483 308.872 82.9517 309.287 83.2301C309.702 83.5028 310.233 83.6392 310.881 83.6392C311.517 83.6392 312.028 83.517 312.415 83.2727C312.807 83.0227 313.006 82.7017 313.011 82.3097C313.006 81.9801 312.866 81.7102 312.594 81.5C312.321 81.2841 311.901 81.1193 311.332 81.0057L309.065 80.554C307.787 80.2983 306.835 79.8551 306.21 79.2244C305.591 78.5937 305.281 77.7898 305.281 76.8125C305.281 75.9716 305.509 75.2472 305.963 74.6392C306.423 74.0312 307.068 73.5625 307.898 73.233C308.733 72.9034 309.71 72.7386 310.83 72.7386C312.483 72.7386 313.784 73.0881 314.733 73.7869C315.688 74.4858 316.244 75.4375 316.403 76.642ZM331.506 72.9091V75.6364H323.622V72.9091H331.506ZM325.412 69.7727H329.043V81.9773C329.043 82.3125 329.094 82.5739 329.196 82.7614C329.298 82.9432 329.44 83.071 329.622 83.1449C329.81 83.2187 330.026 83.2557 330.27 83.2557C330.44 83.2557 330.611 83.2415 330.781 83.2131C330.952 83.179 331.082 83.1534 331.173 83.1364L331.744 85.8381C331.563 85.8949 331.307 85.9602 330.977 86.0341C330.648 86.1136 330.247 86.1619 329.776 86.179C328.901 86.2131 328.134 86.0966 327.474 85.8295C326.821 85.5625 326.313 85.1477 325.949 84.5852C325.585 84.0227 325.406 83.3125 325.412 82.4545V69.7727ZM339.645 86.2557C338.321 86.2557 337.176 85.9744 336.21 85.4119C335.25 84.8437 334.509 84.054 333.986 83.0426C333.463 82.0256 333.202 80.8466 333.202 79.5057C333.202 78.1534 333.463 76.9716 333.986 75.9602C334.509 74.9432 335.25 74.1534 336.21 73.5909C337.176 73.0227 338.321 72.7386 339.645 72.7386C340.969 72.7386 342.111 73.0227 343.071 73.5909C344.037 74.1534 344.781 74.9432 345.304 75.9602C345.827 76.9716 346.088 78.1534 346.088 79.5057C346.088 80.8466 345.827 82.0256 345.304 83.0426C344.781 84.054 344.037 84.8437 343.071 85.4119C342.111 85.9744 340.969 86.2557 339.645 86.2557ZM339.662 83.4432C340.264 83.4432 340.767 83.2727 341.17 82.9318C341.574 82.5852 341.878 82.1136 342.082 81.517C342.293 80.9205 342.398 80.2415 342.398 79.4801C342.398 78.7188 342.293 78.0398 342.082 77.4432C341.878 76.8466 341.574 76.375 341.17 76.0284C340.767 75.6818 340.264 75.5085 339.662 75.5085C339.054 75.5085 338.543 75.6818 338.128 76.0284C337.719 76.375 337.409 76.8466 337.199 77.4432C336.994 78.0398 336.892 78.7188 336.892 79.4801C336.892 80.2415 336.994 80.9205 337.199 81.517C337.409 82.1136 337.719 82.5852 338.128 82.9318C338.543 83.2727 339.054 83.4432 339.662 83.4432ZM362.398 80.4261V72.9091H366.029V86H362.543V83.6222H362.407C362.112 84.3892 361.62 85.0057 360.933 85.4716C360.251 85.9375 359.418 86.1705 358.435 86.1705C357.56 86.1705 356.79 85.9716 356.126 85.5739C355.461 85.1761 354.941 84.6108 354.566 83.8778C354.197 83.1449 354.009 82.267 354.004 81.2443V72.9091H357.634V80.5966C357.64 81.3693 357.847 81.9801 358.256 82.429C358.665 82.8778 359.214 83.1023 359.901 83.1023C360.339 83.1023 360.748 83.0028 361.129 82.804C361.509 82.5994 361.816 82.2983 362.049 81.9006C362.288 81.5028 362.404 81.0114 362.398 80.4261ZM379.825 76.642L376.501 76.8466C376.445 76.5625 376.322 76.3068 376.135 76.0795C375.947 75.8466 375.7 75.6619 375.393 75.5256C375.092 75.3835 374.732 75.3125 374.311 75.3125C373.749 75.3125 373.274 75.4318 372.888 75.6705C372.501 75.9034 372.308 76.2159 372.308 76.608C372.308 76.9205 372.433 77.1847 372.683 77.4006C372.933 77.6165 373.362 77.7898 373.97 77.9205L376.339 78.3977C377.612 78.6591 378.561 79.0795 379.186 79.6591C379.811 80.2386 380.124 81 380.124 81.9432C380.124 82.8011 379.871 83.554 379.365 84.2017C378.865 84.8494 378.178 85.3551 377.303 85.7188C376.433 86.0767 375.43 86.2557 374.294 86.2557C372.561 86.2557 371.18 85.8949 370.152 85.1733C369.129 84.446 368.53 83.4574 368.354 82.2074L371.925 82.0199C372.033 82.5483 372.294 82.9517 372.709 83.2301C373.124 83.5028 373.655 83.6392 374.303 83.6392C374.939 83.6392 375.45 83.517 375.837 83.2727C376.229 83.0227 376.428 82.7017 376.433 82.3097C376.428 81.9801 376.288 81.7102 376.016 81.5C375.743 81.2841 375.322 81.1193 374.754 81.0057L372.487 80.554C371.209 80.2983 370.257 79.8551 369.632 79.2244C369.013 78.5937 368.703 77.7898 368.703 76.8125C368.703 75.9716 368.93 75.2472 369.385 74.6392C369.845 74.0312 370.49 73.5625 371.32 73.233C372.155 72.9034 373.132 72.7386 374.251 72.7386C375.905 72.7386 377.206 73.0881 378.155 73.7869C379.109 74.4858 379.666 75.4375 379.825 76.642Z" fill="white"/>
<path d="M6 27.3333V16.6667C6 13.8377 7.1238 11.1246 9.1242 9.1242C11.1246 7.1238 13.8377 6 16.6667 6H27.3333M80.6668 6H91.3332C94.1624 6 96.8756 7.1238 98.876 9.1242C100.876 11.1246 102 13.8377 102 16.6667V27.3333M102 80.6668V91.3332C102 94.1624 100.876 96.8756 98.876 98.876C96.8756 100.876 94.1624 102 91.3332 102H80.6668M27.3333 102H16.6667C13.8377 102 11.1246 100.876 9.1242 98.876C7.1238 96.8756 6 94.1624 6 91.3332V80.6668M59.3332 54C59.3332 56.9456 56.9456 59.3332 54 59.3332C51.0544 59.3332 48.6668 56.9456 48.6668 54C48.6668 51.0544 51.0544 48.6668 54 48.6668C56.9456 48.6668 59.3332 51.0544 59.3332 54ZM91.0348 55.76C91.4332 54.6204 91.4332 53.3796 91.0348 52.24C88.032 44.8824 82.9056 38.5856 76.3096 34.1536C69.7136 29.7211 61.9468 27.354 54 27.354C46.0532 27.354 38.2864 29.7211 31.6904 34.1536C25.0944 38.5856 19.968 44.8824 16.9653 52.24C16.567 53.3796 16.567 54.6204 16.9653 55.76C19.968 63.1176 25.0944 69.4144 31.6904 73.8464C38.2864 78.2788 46.0532 80.646 54 80.646C61.9468 80.646 69.7136 78.2788 76.3096 73.8464C82.9056 69.4144 88.032 63.1176 91.0348 55.76Z" stroke="white" stroke-width="10.0572" stroke-linecap="round" stroke-linejoin="round"/>
</svg>
